<?xml version="1.0" encoding="UTF-8" standalone="no"?>
<svg width="164px" height="149px" viewBox="0 0 164 149" version="1.1" xmlns="http://www.w3.org/2000/svg" xmlns:xlink="http://www.w3.org/1999/xlink" xmlns:sketch="http://www.bohemiancoding.com/sketch/ns">
    <!-- Generator: Sketch 3.3.3 (12081) - http://www.bohemiancoding.com/sketch -->
    <title>Group</title>
    <desc>Created with Sketch.</desc>
    <defs></defs>
    <g id="Page-1" stroke="none" stroke-width="1" fill="none" fill-rule="evenodd" sketch:type="MSPage">
        <g id="logo" sketch:type="MSLayerGroup">
            <g id="Group" sketch:type="MSShapeGroup">
                <path d="M164,108 C164,110 163.2,111.9 161.8,113.4 L127.8,147.4 C125.9,149.3 122.6,148 122.6,145.3 L122.6,69 L163.5,28.3 L164,28.3 L164,108 L164,108 Z" id="Shape" fill="#E64B5F"></path>
                <path d="M136.9,1.2 C135.7,1.42108547e-14 133.8,1.42108547e-14 132.6,1.2 L82,51.7 L81.3,51.7 L81.3,108.8 L82,110.3 L122.6,69.7 L164,28.3 L136.9,1.2 L136.9,1.2 Z" id="Shape" fill="#EAD19F"></path>
                <path d="M0,108 C0,110 0.8,111.9 2.2,113.4 L36.2,147.4 C38.1,149.3 41.4,148 41.4,145.3 L41.4,69 L0.5,28.3 L0,28.3 L0,108 L0,108 Z" id="Shape" fill="#1E788C"></path>
                <path d="M31.4,1.2 C30.2,1.42108547e-14 28.3,1.42108547e-14 27.1,1.2 L0,28.3 L41.4,69.7 L82,110.3 L82,51.7 L31.4,1.2 L31.4,1.2 Z" id="Shape" fill="#9ABDA9"></path>
            </g>
        </g>
    </g>
</svg>